<svg width="428" height="313" viewBox="0 0 428 313" fill="none" xmlns="http://www.w3.org/2000/svg">
<g style="mix-blend-mode:soft-light">
<path d="M-78.6799 138.401C-79.9613 133.368 -76.9199 128.249 -71.8869 126.968L3.29695 107.826C8.33002 106.545 13.4489 109.586 14.7303 114.619L33.8719 189.803C35.1533 194.836 32.112 199.955 27.0789 201.236L-48.1049 220.378C-53.138 221.659 -58.2569 218.618 -59.5383 213.585L-78.6799 138.401Z" fill="url(#paint0_linear_201_158)"/>
<path d="M26.1218 111.719C24.8404 106.686 27.8817 101.567 32.9148 100.286L108.099 81.144C113.132 79.8626 118.251 82.9039 119.532 87.937L138.674 163.121C139.955 168.154 136.914 173.273 131.881 174.554L56.6967 193.696C51.6637 194.977 46.5448 191.936 45.2634 186.903L26.1218 111.719Z" fill="url(#paint1_linear_201_158)"/>
<path d="M137.716 73.6034C132.683 74.8848 129.642 80.0037 130.923 85.0368L150.065 160.221C151.346 165.254 156.465 168.295 161.498 167.014L236.682 147.872C241.715 146.591 244.757 141.472 243.475 136.439L224.334 61.2548C223.052 56.2217 217.933 53.1804 212.9 54.4618L137.716 73.6034Z" fill="url(#paint2_linear_201_158)"/>
<path d="M235.725 58.3546C234.444 53.3215 237.485 48.2026 242.518 46.9212L317.702 27.7797C322.735 26.4982 327.854 29.5396 329.135 34.5727L348.277 109.756C349.558 114.79 346.517 119.908 341.484 121.19L266.3 140.331C261.267 141.613 256.148 138.571 254.867 133.538L235.725 58.3546Z" fill="url(#paint3_linear_201_158)"/>
<path d="M347.32 20.239C342.287 21.5204 339.245 26.6393 340.527 31.6724L359.668 106.856C360.95 111.889 366.069 114.931 371.102 113.649L446.286 94.5077C451.319 93.2263 454.36 88.1074 453.079 83.0743L433.937 7.89049C432.656 2.85741 427.537 -0.183918 422.504 1.09748L347.32 20.239Z" fill="url(#paint4_linear_201_158)"/>
<path d="M-51.9977 243.203C-53.2791 238.17 -50.2378 233.051 -45.2047 231.769L29.9791 212.628C35.0122 211.346 40.1311 214.388 41.4125 219.421L60.554 294.605C61.8354 299.638 58.7941 304.757 53.761 306.038L-21.4228 325.18C-26.4558 326.461 -31.5747 323.42 -32.8561 318.387L-51.9977 243.203Z" fill="url(#paint5_linear_201_158)"/>
<path d="M59.597 205.087C54.5639 206.369 51.5226 211.488 52.804 216.521L71.9455 291.704C73.2269 296.737 78.3458 299.779 83.3789 298.497L158.563 279.356C163.596 278.074 166.637 272.956 165.356 267.922L146.214 192.739C144.933 187.706 139.814 184.664 134.781 185.946L59.597 205.087Z" fill="url(#paint6_linear_201_158)"/>
<path d="M157.606 189.838C156.324 184.805 159.366 179.686 164.399 178.405L239.582 159.263C244.616 157.982 249.734 161.023 251.016 166.056L270.157 241.24C271.439 246.273 268.397 251.392 263.364 252.674L188.181 271.815C183.148 273.097 178.029 270.055 176.747 265.022L157.606 189.838Z" fill="url(#paint7_linear_201_158)"/>
<path d="M269.2 151.723C264.167 153.004 261.126 158.123 262.407 163.156L281.549 238.34C282.83 243.373 287.949 246.414 292.982 245.133L368.166 225.991C373.199 224.71 376.24 219.591 374.959 214.558L355.817 139.374C354.536 134.341 349.417 131.3 344.384 132.581L269.2 151.723Z" fill="url(#paint8_linear_201_158)"/>
<path d="M367.209 136.474C365.928 131.441 368.969 126.322 374.002 125.041L449.186 105.899C454.219 104.618 459.338 107.659 460.619 112.692L479.761 187.876C481.042 192.909 478.001 198.028 472.968 199.309L397.784 218.451C392.751 219.732 387.632 216.691 386.351 211.658L367.209 136.474Z" fill="url(#paint9_linear_201_158)"/>
<path d="M-18.5225 336.571C-23.5556 337.852 -26.5969 342.971 -25.3155 348.004L-6.17397 423.188C-4.89256 428.221 0.226334 431.263 5.25941 429.981L80.4432 410.84C85.4763 409.558 88.5176 404.439 87.2362 399.406L68.0947 324.222C66.8133 319.189 61.6944 316.148 56.6613 317.429L-18.5225 336.571Z" fill="url(#paint10_linear_201_158)"/>
<path d="M79.4861 321.322C78.2047 316.289 81.2461 311.17 86.2791 309.889L161.463 290.747C166.496 289.466 171.615 292.507 172.896 297.54L192.038 372.724C193.319 377.757 190.278 382.876 185.245 384.157L110.061 403.299C105.028 404.58 99.9091 401.539 98.6277 396.506L79.4861 321.322Z" fill="url(#paint11_linear_201_158)"/>
<path d="M191.081 283.207C186.048 284.488 183.006 289.607 184.288 294.64L203.429 369.824C204.711 374.857 209.83 377.898 214.863 376.617L290.047 357.475C295.08 356.194 298.121 351.075 296.84 346.042L277.698 270.858C276.417 265.825 271.298 262.784 266.265 264.065L191.081 283.207Z" fill="url(#paint12_linear_201_158)"/>
<path d="M289.089 267.958C287.808 262.925 290.849 257.806 295.882 256.525L371.066 237.383C376.099 236.102 381.218 239.143 382.5 244.176L401.641 319.36C402.923 324.393 399.881 329.512 394.848 330.793L319.664 349.935C314.631 351.216 309.512 348.175 308.231 343.142L289.089 267.958Z" fill="url(#paint13_linear_201_158)"/>
<path d="M400.684 229.842C395.651 231.124 392.61 236.243 393.891 241.276L413.033 316.46C414.314 321.493 419.433 324.534 424.466 323.253L499.65 304.111C504.683 302.83 507.724 297.711 506.443 292.678L487.301 217.494C486.02 212.461 480.901 209.419 475.868 210.701L400.684 229.842Z" fill="url(#paint14_linear_201_158)"/>
</g>
<defs>
<linearGradient id="paint0_linear_201_158" x1="175.308" y1="64.0326" x2="252.455" y2="367.046" gradientUnits="userSpaceOnUse">
<stop stop-color="white" stop-opacity="0"/>
<stop offset="1" stop-color="white"/>
</linearGradient>
<linearGradient id="paint1_linear_201_158" x1="175.308" y1="64.0326" x2="252.455" y2="367.046" gradientUnits="userSpaceOnUse">
<stop stop-color="white" stop-opacity="0"/>
<stop offset="1" stop-color="white"/>
</linearGradient>
<linearGradient id="paint2_linear_201_158" x1="175.308" y1="64.0326" x2="252.455" y2="367.046" gradientUnits="userSpaceOnUse">
<stop stop-color="white" stop-opacity="0"/>
<stop offset="1" stop-color="white"/>
</linearGradient>
<linearGradient id="paint3_linear_201_158" x1="175.308" y1="64.0326" x2="252.455" y2="367.046" gradientUnits="userSpaceOnUse">
<stop stop-color="white" stop-opacity="0"/>
<stop offset="1" stop-color="white"/>
</linearGradient>
<linearGradient id="paint4_linear_201_158" x1="175.308" y1="64.0326" x2="252.455" y2="367.046" gradientUnits="userSpaceOnUse">
<stop stop-color="white" stop-opacity="0"/>
<stop offset="1" stop-color="white"/>
</linearGradient>
<linearGradient id="paint5_linear_201_158" x1="175.308" y1="64.0326" x2="252.455" y2="367.046" gradientUnits="userSpaceOnUse">
<stop stop-color="white" stop-opacity="0"/>
<stop offset="1" stop-color="white"/>
</linearGradient>
<linearGradient id="paint6_linear_201_158" x1="175.308" y1="64.0326" x2="252.455" y2="367.046" gradientUnits="userSpaceOnUse">
<stop stop-color="white" stop-opacity="0"/>
<stop offset="1" stop-color="white"/>
</linearGradient>
<linearGradient id="paint7_linear_201_158" x1="175.308" y1="64.0326" x2="252.455" y2="367.046" gradientUnits="userSpaceOnUse">
<stop stop-color="white" stop-opacity="0"/>
<stop offset="1" stop-color="white"/>
</linearGradient>
<linearGradient id="paint8_linear_201_158" x1="175.308" y1="64.0326" x2="252.455" y2="367.046" gradientUnits="userSpaceOnUse">
<stop stop-color="white" stop-opacity="0"/>
<stop offset="1" stop-color="white"/>
</linearGradient>
<linearGradient id="paint9_linear_201_158" x1="175.308" y1="64.0326" x2="252.455" y2="367.046" gradientUnits="userSpaceOnUse">
<stop stop-color="white" stop-opacity="0"/>
<stop offset="1" stop-color="white"/>
</linearGradient>
<linearGradient id="paint10_linear_201_158" x1="175.308" y1="64.0326" x2="252.455" y2="367.046" gradientUnits="userSpaceOnUse">
<stop stop-color="white" stop-opacity="0"/>
<stop offset="1" stop-color="white"/>
</linearGradient>
<linearGradient id="paint11_linear_201_158" x1="175.308" y1="64.0326" x2="252.455" y2="367.046" gradientUnits="userSpaceOnUse">
<stop stop-color="white" stop-opacity="0"/>
<stop offset="1" stop-color="white"/>
</linearGradient>
<linearGradient id="paint12_linear_201_158" x1="175.308" y1="64.0326" x2="252.455" y2="367.046" gradientUnits="userSpaceOnUse">
<stop stop-color="white" stop-opacity="0"/>
<stop offset="1" stop-color="white"/>
</linearGradient>
<linearGradient id="paint13_linear_201_158" x1="175.308" y1="64.0326" x2="252.455" y2="367.046" gradientUnits="userSpaceOnUse">
<stop stop-color="white" stop-opacity="0"/>
<stop offset="1" stop-color="white"/>
</linearGradient>
<linearGradient id="paint14_linear_201_158" x1="175.308" y1="64.0326" x2="252.455" y2="367.046" gradientUnits="userSpaceOnUse">
<stop stop-color="white" stop-opacity="0"/>
<stop offset="1" stop-color="white"/>
</linearGradient>
</defs>
</svg>
