<svg width="428" height="202" viewBox="0 0 428 202" fill="none" xmlns="http://www.w3.org/2000/svg">
<g style="mix-blend-mode:soft-light">
<path d="M506.443 64.3897C507.724 69.4228 504.683 74.5417 499.65 75.8231L424.466 94.9646C419.433 96.246 414.314 93.2047 413.033 88.1716L393.891 12.9878C392.61 7.95477 395.651 2.83588 400.684 1.55447L475.868 -17.5871C480.901 -18.8685 486.02 -15.8272 487.301 -10.7941L506.443 64.3897Z" fill="url(#paint0_linear_201_159)"/>
<path d="M401.641 91.0719C402.923 96.105 399.881 101.224 394.848 102.505L319.664 121.647C314.631 122.928 309.512 119.887 308.231 114.854L289.089 39.67C287.808 34.6369 290.849 29.518 295.882 28.2366L371.066 9.09508C376.099 7.81368 381.218 10.855 382.5 15.8881L401.641 91.0719Z" fill="url(#paint1_linear_201_159)"/>
<path d="M290.047 129.187C295.08 127.906 298.121 122.787 296.84 117.754L277.698 42.5703C276.417 37.5372 271.298 34.4958 266.265 35.7773L191.081 54.9188C186.048 56.2002 183.006 61.3191 184.288 66.3522L203.429 141.536C204.711 146.569 209.83 149.61 214.863 148.329L290.047 129.187Z" fill="url(#paint2_linear_201_159)"/>
<path d="M192.038 144.436C193.319 149.469 190.278 154.588 185.245 155.87L110.061 175.011C105.028 176.293 99.9091 173.251 98.6277 168.218L79.4861 93.0344C78.2047 88.0013 81.2461 82.8824 86.2791 81.601L161.463 62.4594C166.496 61.178 171.615 64.2193 172.896 69.2524L192.038 144.436Z" fill="url(#paint3_linear_201_159)"/>
<path d="M80.4432 182.552C85.4763 181.27 88.5176 176.151 87.2362 171.118L68.0946 95.9346C66.8132 90.9015 61.6943 87.8602 56.6613 89.1416L-18.5226 108.283C-23.5556 109.565 -26.5969 114.683 -25.3155 119.717L-6.17396 194.9C-4.89255 199.933 0.226336 202.975 5.25938 201.693L80.4432 182.552Z" fill="url(#paint4_linear_201_159)"/>
<path d="M479.761 -40.4119C481.042 -35.3789 478.001 -30.26 472.968 -28.9786L397.784 -9.83701C392.751 -8.55561 387.632 -11.5969 386.351 -16.63L367.209 -91.8138C365.928 -96.8469 368.969 -101.966 374.002 -103.247L449.186 -122.389C454.219 -123.67 459.338 -120.629 460.619 -115.596L479.761 -40.4119Z" fill="url(#paint5_linear_201_159)"/>
<path d="M368.166 -2.2964C373.199 -3.57781 376.24 -8.69671 374.959 -13.7298L355.817 -88.9136C354.536 -93.9466 349.417 -96.988 344.384 -95.7066L269.2 -76.565C264.167 -75.2836 261.126 -70.1647 262.407 -65.1316L281.549 10.0522C282.83 15.0852 287.949 18.1266 292.982 16.8452L368.166 -2.2964Z" fill="url(#paint6_linear_201_159)"/>
<path d="M270.157 12.9524C271.439 17.9855 268.397 23.1044 263.364 24.3858L188.181 43.5273C183.147 44.8087 178.029 41.7674 176.747 36.7343L157.606 -38.4495C156.324 -43.4825 159.366 -48.6014 164.399 -49.8828L239.582 -69.0244C244.616 -70.3058 249.734 -67.2645 251.016 -62.2314L270.157 12.9524Z" fill="url(#paint7_linear_201_159)"/>
<path d="M158.563 51.0679C163.596 49.7865 166.637 44.6676 165.356 39.6346L146.214 -35.5492C144.933 -40.5823 139.814 -43.6236 134.781 -42.3422L59.597 -23.2007C54.5639 -21.9193 51.5226 -16.8004 52.804 -11.7673L71.9455 63.4165C73.2269 68.4496 78.3458 71.4909 83.3789 70.2095L158.563 51.0679Z" fill="url(#paint8_linear_201_159)"/>
<path d="M60.554 66.3167C61.8354 71.3498 58.7941 76.4687 53.761 77.7501L-21.4228 96.8917C-26.4558 98.1731 -31.5747 95.1317 -32.8561 90.0987L-51.9977 14.9149C-53.2791 9.88179 -50.2378 4.76289 -45.2047 3.48149L29.9791 -15.6601C35.0122 -16.9415 40.1311 -13.9001 41.4125 -8.86707L60.554 66.3167Z" fill="url(#paint9_linear_201_159)"/>
<path d="M446.286 -133.78C451.319 -135.062 454.36 -140.181 453.079 -145.214L433.937 -220.397C432.656 -225.43 427.537 -228.472 422.504 -227.19L347.32 -208.049C342.287 -206.767 339.245 -201.649 340.527 -196.615L359.668 -121.432C360.95 -116.399 366.069 -113.357 371.102 -114.639L446.286 -133.78Z" fill="url(#paint10_linear_201_159)"/>
<path d="M348.277 -118.531C349.558 -113.498 346.517 -108.379 341.484 -107.098L266.3 -87.9565C261.267 -86.6751 256.148 -89.7164 254.867 -94.7495L235.725 -169.933C234.444 -174.966 237.485 -180.085 242.518 -181.367L317.702 -200.508C322.735 -201.79 327.854 -198.748 329.135 -193.715L348.277 -118.531Z" fill="url(#paint11_linear_201_159)"/>
<path d="M236.682 -80.4159C241.715 -81.6973 244.757 -86.8162 243.475 -91.8493L224.334 -167.033C223.052 -172.066 217.933 -175.107 212.9 -173.826L137.716 -154.685C132.683 -153.403 129.642 -148.284 130.923 -143.251L150.065 -68.0673C151.346 -63.0343 156.465 -59.9929 161.498 -61.2743L236.682 -80.4159Z" fill="url(#paint12_linear_201_159)"/>
<path d="M138.674 -65.1671C139.955 -60.134 136.914 -55.0151 131.881 -53.7337L56.6967 -34.5922C51.6637 -33.3108 46.5448 -36.3521 45.2634 -41.3852L26.1218 -116.569C24.8404 -121.602 27.8817 -126.721 32.9148 -128.002L108.099 -147.144C113.132 -148.425 118.251 -145.384 119.532 -140.351L138.674 -65.1671Z" fill="url(#paint13_linear_201_159)"/>
<path d="M27.0789 -27.0515C32.1119 -28.333 35.1533 -33.4519 33.8719 -38.4849L14.7303 -113.669C13.4489 -118.702 8.33 -121.743 3.29693 -120.462L-71.8869 -101.32C-76.9199 -100.039 -79.9613 -94.9199 -78.6798 -89.8868L-59.5383 -14.703C-58.2569 -9.66993 -53.138 -6.62859 -48.105 -7.90999L27.0789 -27.0515Z" fill="url(#paint14_linear_201_159)"/>
</g>
<defs>
<linearGradient id="paint0_linear_201_159" x1="252.455" y1="138.758" x2="175.308" y2="-164.255" gradientUnits="userSpaceOnUse">
<stop stop-color="white" stop-opacity="0"/>
<stop offset="1" stop-color="white"/>
</linearGradient>
<linearGradient id="paint1_linear_201_159" x1="252.455" y1="138.758" x2="175.308" y2="-164.255" gradientUnits="userSpaceOnUse">
<stop stop-color="white" stop-opacity="0"/>
<stop offset="1" stop-color="white"/>
</linearGradient>
<linearGradient id="paint2_linear_201_159" x1="252.455" y1="138.758" x2="175.308" y2="-164.255" gradientUnits="userSpaceOnUse">
<stop stop-color="white" stop-opacity="0"/>
<stop offset="1" stop-color="white"/>
</linearGradient>
<linearGradient id="paint3_linear_201_159" x1="252.455" y1="138.758" x2="175.308" y2="-164.255" gradientUnits="userSpaceOnUse">
<stop stop-color="white" stop-opacity="0"/>
<stop offset="1" stop-color="white"/>
</linearGradient>
<linearGradient id="paint4_linear_201_159" x1="252.455" y1="138.758" x2="175.308" y2="-164.255" gradientUnits="userSpaceOnUse">
<stop stop-color="white" stop-opacity="0"/>
<stop offset="1" stop-color="white"/>
</linearGradient>
<linearGradient id="paint5_linear_201_159" x1="252.455" y1="138.758" x2="175.308" y2="-164.255" gradientUnits="userSpaceOnUse">
<stop stop-color="white" stop-opacity="0"/>
<stop offset="1" stop-color="white"/>
</linearGradient>
<linearGradient id="paint6_linear_201_159" x1="252.455" y1="138.758" x2="175.308" y2="-164.255" gradientUnits="userSpaceOnUse">
<stop stop-color="white" stop-opacity="0"/>
<stop offset="1" stop-color="white"/>
</linearGradient>
<linearGradient id="paint7_linear_201_159" x1="252.455" y1="138.758" x2="175.308" y2="-164.255" gradientUnits="userSpaceOnUse">
<stop stop-color="white" stop-opacity="0"/>
<stop offset="1" stop-color="white"/>
</linearGradient>
<linearGradient id="paint8_linear_201_159" x1="252.455" y1="138.758" x2="175.308" y2="-164.255" gradientUnits="userSpaceOnUse">
<stop stop-color="white" stop-opacity="0"/>
<stop offset="1" stop-color="white"/>
</linearGradient>
<linearGradient id="paint9_linear_201_159" x1="252.455" y1="138.758" x2="175.308" y2="-164.255" gradientUnits="userSpaceOnUse">
<stop stop-color="white" stop-opacity="0"/>
<stop offset="1" stop-color="white"/>
</linearGradient>
<linearGradient id="paint10_linear_201_159" x1="252.455" y1="138.758" x2="175.308" y2="-164.255" gradientUnits="userSpaceOnUse">
<stop stop-color="white" stop-opacity="0"/>
<stop offset="1" stop-color="white"/>
</linearGradient>
<linearGradient id="paint11_linear_201_159" x1="252.455" y1="138.758" x2="175.308" y2="-164.255" gradientUnits="userSpaceOnUse">
<stop stop-color="white" stop-opacity="0"/>
<stop offset="1" stop-color="white"/>
</linearGradient>
<linearGradient id="paint12_linear_201_159" x1="252.455" y1="138.758" x2="175.308" y2="-164.255" gradientUnits="userSpaceOnUse">
<stop stop-color="white" stop-opacity="0"/>
<stop offset="1" stop-color="white"/>
</linearGradient>
<linearGradient id="paint13_linear_201_159" x1="252.455" y1="138.758" x2="175.308" y2="-164.255" gradientUnits="userSpaceOnUse">
<stop stop-color="white" stop-opacity="0"/>
<stop offset="1" stop-color="white"/>
</linearGradient>
<linearGradient id="paint14_linear_201_159" x1="252.455" y1="138.758" x2="175.308" y2="-164.255" gradientUnits="userSpaceOnUse">
<stop stop-color="white" stop-opacity="0"/>
<stop offset="1" stop-color="white"/>
</linearGradient>
</defs>
</svg>
