<svg width="34" height="36" viewBox="0 0 34 36" fill="none" xmlns="http://www.w3.org/2000/svg">
<g filter="url(#filter0_d_201_116)">
<path fill-rule="evenodd" clip-rule="evenodd" d="M19.647 1.36364C19.647 0.61049 19.0365 0 18.2834 0H15.7166C14.9635 0 14.353 0.61049 14.353 1.36364V3.71271C13.1623 3.99087 12.0421 4.45254 11.024 5.06636L9.06071 3.10306C8.52821 2.57055 7.66478 2.57055 7.13228 3.10306L5.31712 4.91813C4.78462 5.45063 4.78462 6.31406 5.31712 6.84656L7.23049 8.75993C6.53452 9.84725 6.01517 11.0584 5.71271 12.353H3.36364C2.61049 12.353 2 12.9635 2 13.7166V16.2834C2 17.0365 2.61049 17.647 3.36364 17.647H5.71271C5.98179 18.7988 6.42258 19.8846 7.0066 20.8758L5.28042 22.602C4.74791 23.1345 4.74791 23.9979 5.28042 24.5304L7.09549 26.3455C7.628 26.878 8.49142 26.878 9.02393 26.3454L10.6627 24.7066C11.7748 25.4342 13.0197 25.9758 14.353 26.2873V28.6364C14.353 29.3895 14.9635 30 15.7166 30H18.2834C19.0365 30 19.647 29.3895 19.647 28.6364V26.2873C20.9416 25.9848 22.1528 25.4655 23.2401 24.7695L24.602 26.1314C25.1345 26.6639 25.9979 26.6639 26.5304 26.1314L28.3455 24.3162C28.878 23.7837 28.878 22.9203 28.3455 22.3878L26.9336 20.976C27.5475 19.9579 28.0091 18.8377 28.2873 17.647H30.6364C31.3895 17.647 32 17.0365 32 16.2834V13.7166C32 12.9635 31.3895 12.353 30.6364 12.353H28.2873C27.9758 11.0197 27.4343 9.77492 26.7067 8.6628L28.3088 7.06071C28.8413 6.52821 28.8413 5.66478 28.3088 5.13228L26.4936 3.31712C25.9611 2.78462 25.0977 2.78462 24.5652 3.31712L22.8757 5.0066C21.8845 4.42258 20.7988 3.98179 19.647 3.71271V1.36364ZM17 20.4545C20.0125 20.4545 22.4545 18.0125 22.4545 15C22.4545 11.9875 20.0125 9.54545 17 9.54545C13.9875 9.54545 11.5455 11.9875 11.5455 15C11.5455 18.0125 13.9875 20.4545 17 20.4545Z" fill="url(#paint0_linear_201_116)"/>
</g>
<defs>
<filter id="filter0_d_201_116" x="0" y="0" width="34" height="36" filterUnits="userSpaceOnUse" color-interpolation-filters="sRGB">
<feFlood flood-opacity="0" result="BackgroundImageFix"/>
<feColorMatrix in="SourceAlpha" type="matrix" values="0 0 0 0 0 0 0 0 0 0 0 0 0 0 0 0 0 0 127 0" result="hardAlpha"/>
<feOffset dy="4"/>
<feGaussianBlur stdDeviation="1"/>
<feComposite in2="hardAlpha" operator="out"/>
<feColorMatrix type="matrix" values="0 0 0 0 0 0 0 0 0 0 0 0 0 0 0 0 0 0 0.25 0"/>
<feBlend mode="normal" in2="BackgroundImageFix" result="effect1_dropShadow_201_116"/>
<feBlend mode="normal" in="SourceGraphic" in2="effect1_dropShadow_201_116" result="shape"/>
</filter>
<linearGradient id="paint0_linear_201_116" x1="17" y1="0" x2="17" y2="30" gradientUnits="userSpaceOnUse">
<stop stop-color="white"/>
<stop offset="1" stop-color="#1CE4FF"/>
</linearGradient>
</defs>
</svg>
