<svg width="51" height="51" viewBox="0 0 51 51" fill="none" xmlns="http://www.w3.org/2000/svg">
<g clip-path="url(#clip0_14_2033)">
<rect x="51" y="49.3329" width="23.6664" height="23.6664" rx="2.15149" transform="rotate(-180 51 49.3329)" fill="url(#paint0_linear_14_2033)"/>
<g style="mix-blend-mode:plus-lighter">
<path d="M51 49.1661L47.2349 45.401L47.2349 29.2648L51 25.4997L51 49.1661Z" fill="white" fill-opacity="0.1"/>
</g>
<g style="mix-blend-mode:plus-darker">
<path d="M27 49.1661L30.7651 45.401L30.7651 29.2648L27 25.4996L27 49.1661Z" fill="black" fill-opacity="0.1"/>
</g>
<g style="mix-blend-mode:plus-lighter">
<path d="M50.8333 49.3329L47.0681 45.5678L30.9319 45.5678L27.1668 49.3329L50.8333 49.3329Z" fill="white" fill-opacity="0.2"/>
</g>
<g style="mix-blend-mode:plus-darker">
<path d="M27.1668 25.3329L30.9319 29.098L47.0681 29.098L50.8332 25.3329L27.1668 25.3329Z" fill="black" fill-opacity="0.2"/>
</g>
</g>
<g clip-path="url(#clip1_14_2033)">
<rect x="25.3336" y="49.3329" width="23.6664" height="23.6664" rx="2.15149" transform="rotate(-180 25.3336 49.3329)" fill="url(#paint1_linear_14_2033)"/>
<g style="mix-blend-mode:plus-lighter">
<path d="M25.3336 49.1661L21.5684 45.401L21.5684 29.2648L25.3336 25.4997L25.3336 49.1661Z" fill="white" fill-opacity="0.1"/>
</g>
<g style="mix-blend-mode:plus-darker">
<path d="M1.33356 49.1661L5.09867 45.401L5.09867 29.2648L1.33356 25.4996L1.33356 49.1661Z" fill="black" fill-opacity="0.1"/>
</g>
<g style="mix-blend-mode:plus-lighter">
<path d="M25.1668 49.3329L21.4017 45.5678L5.26549 45.5678L1.50038 49.3329L25.1668 49.3329Z" fill="white" fill-opacity="0.2"/>
</g>
<g style="mix-blend-mode:plus-darker">
<path d="M1.50037 25.3329L5.26548 29.098L21.4017 29.098L25.1668 25.3329L1.50037 25.3329Z" fill="black" fill-opacity="0.2"/>
</g>
</g>
<g clip-path="url(#clip2_14_2033)">
<rect x="51" y="23.6664" width="23.6664" height="23.6664" rx="2.15149" transform="rotate(-180 51 23.6664)" fill="url(#paint2_linear_14_2033)"/>
<g style="mix-blend-mode:plus-lighter">
<path d="M51 23.4997L47.2349 19.7345L47.2349 3.59835L51 -0.166767L51 23.4997Z" fill="white" fill-opacity="0.1"/>
</g>
<g style="mix-blend-mode:plus-darker">
<path d="M27 23.4996L30.7651 19.7345L30.7651 3.59833L27 -0.166782L27 23.4996Z" fill="black" fill-opacity="0.1"/>
</g>
<g style="mix-blend-mode:plus-lighter">
<path d="M50.8333 23.6664L47.0681 19.9013L30.9319 19.9013L27.1668 23.6664L50.8333 23.6664Z" fill="white" fill-opacity="0.2"/>
</g>
<g style="mix-blend-mode:plus-darker">
<path d="M27.1668 -0.333572L30.9319 3.43154L47.0681 3.43154L50.8332 -0.333569L27.1668 -0.333572Z" fill="black" fill-opacity="0.2"/>
</g>
</g>
<g clip-path="url(#clip3_14_2033)">
<rect x="25.3336" y="23.6664" width="23.6664" height="23.6664" rx="2.15149" transform="rotate(-180 25.3336 23.6664)" fill="url(#paint3_linear_14_2033)"/>
<g style="mix-blend-mode:plus-lighter">
<path d="M25.3336 23.4996L21.5684 19.7345L21.5684 3.59833L25.3336 -0.166782L25.3336 23.4996Z" fill="white" fill-opacity="0.1"/>
</g>
<g style="mix-blend-mode:plus-darker">
<path d="M1.33356 23.4996L5.09867 19.7345L5.09867 3.59832L1.33356 -0.166798L1.33356 23.4996Z" fill="black" fill-opacity="0.1"/>
</g>
<g style="mix-blend-mode:plus-lighter">
<path d="M25.1668 23.6664L21.4017 19.9013L5.26549 19.9013L1.50038 23.6664L25.1668 23.6664Z" fill="white" fill-opacity="0.2"/>
</g>
<g style="mix-blend-mode:plus-darker">
<path d="M1.50037 -0.333588L5.26548 3.43153L21.4017 3.43153L25.1668 -0.333585L1.50037 -0.333588Z" fill="black" fill-opacity="0.2"/>
</g>
</g>
<defs>
<linearGradient id="paint0_linear_14_2033" x1="62.8332" y1="49.3329" x2="62.8332" y2="72.9993" gradientUnits="userSpaceOnUse">
<stop stop-color="#FF7DF2"/>
<stop offset="1" stop-color="#D252FF"/>
</linearGradient>
<linearGradient id="paint1_linear_14_2033" x1="37.1668" y1="49.3329" x2="37.1668" y2="72.9993" gradientUnits="userSpaceOnUse">
<stop stop-color="#FF7DF2"/>
<stop offset="1" stop-color="#D252FF"/>
</linearGradient>
<linearGradient id="paint2_linear_14_2033" x1="62.8332" y1="23.6664" x2="62.8332" y2="47.3329" gradientUnits="userSpaceOnUse">
<stop stop-color="#FF7DF2"/>
<stop offset="1" stop-color="#D252FF"/>
</linearGradient>
<linearGradient id="paint3_linear_14_2033" x1="37.1668" y1="23.6664" x2="37.1668" y2="47.3329" gradientUnits="userSpaceOnUse">
<stop stop-color="#FF7DF2"/>
<stop offset="1" stop-color="#D252FF"/>
</linearGradient>
<clipPath id="clip0_14_2033">
<rect x="51" y="49.3329" width="23.6664" height="23.6664" rx="2.15149" transform="rotate(-180 51 49.3329)" fill="white"/>
</clipPath>
<clipPath id="clip1_14_2033">
<rect x="25.3336" y="49.3329" width="23.6664" height="23.6664" rx="2.15149" transform="rotate(-180 25.3336 49.3329)" fill="white"/>
</clipPath>
<clipPath id="clip2_14_2033">
<rect x="51" y="23.6664" width="23.6664" height="23.6664" rx="2.15149" transform="rotate(-180 51 23.6664)" fill="white"/>
</clipPath>
<clipPath id="clip3_14_2033">
<rect x="25.3336" y="23.6664" width="23.6664" height="23.6664" rx="2.15149" transform="rotate(-180 25.3336 23.6664)" fill="white"/>
</clipPath>
</defs>
</svg>
