<svg width="50" height="52" viewBox="0 0 50 52" fill="none" xmlns="http://www.w3.org/2000/svg">
<g clip-path="url(#clip0_14_2028)">
<rect x="0.667114" y="52" width="23.6664" height="23.6664" rx="2.15149" transform="rotate(-90 0.667114 52)" fill="url(#paint0_linear_14_2028)"/>
<g style="mix-blend-mode:plus-lighter">
<path d="M0.833862 52L4.59898 48.2349L20.7352 48.2349L24.5003 52L0.833862 52Z" fill="white" fill-opacity="0.1"/>
</g>
<g style="mix-blend-mode:plus-darker">
<path d="M0.833862 28L4.59898 31.7651L20.7352 31.7651L24.5003 28L0.833862 28Z" fill="black" fill-opacity="0.1"/>
</g>
<g style="mix-blend-mode:plus-lighter">
<path d="M0.667114 51.8332L4.43223 48.0681L4.43223 31.9319L0.667116 28.1668L0.667114 51.8332Z" fill="white" fill-opacity="0.2"/>
</g>
<g style="mix-blend-mode:plus-darker">
<path d="M24.6671 28.1668L20.902 31.9319L20.902 48.0681L24.6671 51.8332L24.6671 28.1668Z" fill="black" fill-opacity="0.2"/>
</g>
</g>
<g clip-path="url(#clip1_14_2028)">
<rect x="0.667114" y="26.3336" width="23.6664" height="23.6664" rx="2.15149" transform="rotate(-90 0.667114 26.3336)" fill="url(#paint1_linear_14_2028)"/>
<g style="mix-blend-mode:plus-lighter">
<path d="M0.833862 26.3336L4.59898 22.5685L20.7352 22.5685L24.5003 26.3336L0.833862 26.3336Z" fill="white" fill-opacity="0.1"/>
</g>
<g style="mix-blend-mode:plus-darker">
<path d="M0.833862 2.33357L4.59898 6.09869L20.7352 6.09869L24.5003 2.33357L0.833862 2.33357Z" fill="black" fill-opacity="0.1"/>
</g>
<g style="mix-blend-mode:plus-lighter">
<path d="M0.667114 26.1668L4.43223 22.4017L4.43223 6.26548L0.667116 2.50036L0.667114 26.1668Z" fill="white" fill-opacity="0.2"/>
</g>
<g style="mix-blend-mode:plus-darker">
<path d="M24.6671 2.50037L20.902 6.26548L20.902 22.4017L24.6671 26.1668L24.6671 2.50037Z" fill="black" fill-opacity="0.2"/>
</g>
</g>
<g clip-path="url(#clip2_14_2028)">
<rect x="26.3336" y="52" width="23.6664" height="23.6664" rx="2.15149" transform="rotate(-90 26.3336 52)" fill="url(#paint2_linear_14_2028)"/>
<g style="mix-blend-mode:plus-lighter">
<path d="M26.5003 52L30.2654 48.2349L46.4016 48.2349L50.1667 52L26.5003 52Z" fill="white" fill-opacity="0.1"/>
</g>
<g style="mix-blend-mode:plus-darker">
<path d="M26.5003 28L30.2654 31.7651L46.4016 31.7651L50.1667 28L26.5003 28Z" fill="black" fill-opacity="0.1"/>
</g>
<g style="mix-blend-mode:plus-lighter">
<path d="M26.3336 51.8332L30.0987 48.0681L30.0987 31.9319L26.3336 28.1668L26.3336 51.8332Z" fill="white" fill-opacity="0.2"/>
</g>
<g style="mix-blend-mode:plus-darker">
<path d="M50.3336 28.1668L46.5684 31.9319L46.5684 48.0681L50.3336 51.8332L50.3336 28.1668Z" fill="black" fill-opacity="0.2"/>
</g>
</g>
<defs>
<linearGradient id="paint0_linear_14_2028" x1="12.5003" y1="52" x2="12.5003" y2="75.6664" gradientUnits="userSpaceOnUse">
<stop stop-color="#5BEE57"/>
<stop offset="1" stop-color="#1BC134"/>
</linearGradient>
<linearGradient id="paint1_linear_14_2028" x1="12.5003" y1="26.3336" x2="12.5003" y2="50" gradientUnits="userSpaceOnUse">
<stop stop-color="#5BEE57"/>
<stop offset="1" stop-color="#1BC134"/>
</linearGradient>
<linearGradient id="paint2_linear_14_2028" x1="38.1668" y1="52" x2="38.1668" y2="75.6664" gradientUnits="userSpaceOnUse">
<stop stop-color="#5BEE57"/>
<stop offset="1" stop-color="#1BC134"/>
</linearGradient>
<clipPath id="clip0_14_2028">
<rect x="0.667114" y="52" width="23.6664" height="23.6664" rx="2.15149" transform="rotate(-90 0.667114 52)" fill="white"/>
</clipPath>
<clipPath id="clip1_14_2028">
<rect x="0.667114" y="26.3336" width="23.6664" height="23.6664" rx="2.15149" transform="rotate(-90 0.667114 26.3336)" fill="white"/>
</clipPath>
<clipPath id="clip2_14_2028">
<rect x="26.3336" y="52" width="23.6664" height="23.6664" rx="2.15149" transform="rotate(-90 26.3336 52)" fill="white"/>
</clipPath>
</defs>
</svg>
