<svg width="78" height="51" viewBox="0 0 78 51" fill="none" xmlns="http://www.w3.org/2000/svg">
<g clip-path="url(#clip0_14_2022)">
<rect x="78" y="49.3329" width="23.6664" height="23.6664" rx="2.15149" transform="rotate(-180 78 49.3329)" fill="url(#paint0_linear_14_2022)"/>
<g style="mix-blend-mode:plus-lighter">
<path d="M78 49.1661L74.2349 45.401L74.2349 29.2648L78 25.4997L78 49.1661Z" fill="white" fill-opacity="0.1"/>
</g>
<g style="mix-blend-mode:plus-darker">
<path d="M54 49.1661L57.7651 45.401L57.7651 29.2648L54 25.4996L54 49.1661Z" fill="black" fill-opacity="0.1"/>
</g>
<g style="mix-blend-mode:plus-lighter">
<path d="M77.8333 49.3329L74.0681 45.5678L57.9319 45.5678L54.1668 49.3329L77.8333 49.3329Z" fill="white" fill-opacity="0.2"/>
</g>
<g style="mix-blend-mode:plus-darker">
<path d="M54.1668 25.3329L57.9319 29.098L74.0681 29.098L77.8332 25.3329L54.1668 25.3329Z" fill="black" fill-opacity="0.2"/>
</g>
</g>
<g clip-path="url(#clip1_14_2022)">
<rect x="52.3336" y="49.3329" width="23.6664" height="23.6664" rx="2.15149" transform="rotate(-180 52.3336 49.3329)" fill="url(#paint1_linear_14_2022)"/>
<g style="mix-blend-mode:plus-lighter">
<path d="M52.3336 49.1661L48.5684 45.401L48.5684 29.2648L52.3336 25.4997L52.3336 49.1661Z" fill="white" fill-opacity="0.1"/>
</g>
<g style="mix-blend-mode:plus-darker">
<path d="M28.3336 49.1661L32.0987 45.401L32.0987 29.2648L28.3336 25.4996L28.3336 49.1661Z" fill="black" fill-opacity="0.1"/>
</g>
<g style="mix-blend-mode:plus-lighter">
<path d="M52.1668 49.3329L48.4017 45.5678L32.2655 45.5678L28.5004 49.3329L52.1668 49.3329Z" fill="white" fill-opacity="0.2"/>
</g>
<g style="mix-blend-mode:plus-darker">
<path d="M28.5004 25.3329L32.2655 29.098L48.4017 29.098L52.1668 25.3329L28.5004 25.3329Z" fill="black" fill-opacity="0.2"/>
</g>
</g>
<g clip-path="url(#clip2_14_2022)">
<rect x="26.6671" y="49.3329" width="23.6664" height="23.6664" rx="2.15149" transform="rotate(-180 26.6671 49.3329)" fill="url(#paint2_linear_14_2022)"/>
<g style="mix-blend-mode:plus-lighter">
<path d="M26.6671 49.1661L22.902 45.401L22.902 29.2648L26.6671 25.4997L26.6671 49.1661Z" fill="white" fill-opacity="0.1"/>
</g>
<g style="mix-blend-mode:plus-darker">
<path d="M2.66711 49.1661L6.43223 45.401L6.43223 29.2648L2.66712 25.4996L2.66711 49.1661Z" fill="black" fill-opacity="0.1"/>
</g>
<g style="mix-blend-mode:plus-lighter">
<path d="M26.5004 49.3329L22.7353 45.5678L6.59905 45.5678L2.83393 49.3329L26.5004 49.3329Z" fill="white" fill-opacity="0.2"/>
</g>
<g style="mix-blend-mode:plus-darker">
<path d="M2.83392 25.3329L6.59904 29.098L22.7352 29.098L26.5004 25.3329L2.83392 25.3329Z" fill="black" fill-opacity="0.2"/>
</g>
</g>
<g clip-path="url(#clip3_14_2022)">
<rect x="78" y="23.6664" width="23.6664" height="23.6664" rx="2.15149" transform="rotate(-180 78 23.6664)" fill="url(#paint3_linear_14_2022)"/>
<g style="mix-blend-mode:plus-lighter">
<path d="M78 23.4997L74.2349 19.7345L74.2349 3.59835L78 -0.166767L78 23.4997Z" fill="white" fill-opacity="0.1"/>
</g>
<g style="mix-blend-mode:plus-darker">
<path d="M54 23.4996L57.7651 19.7345L57.7651 3.59833L54 -0.166782L54 23.4996Z" fill="black" fill-opacity="0.1"/>
</g>
<g style="mix-blend-mode:plus-lighter">
<path d="M77.8333 23.6664L74.0681 19.9013L57.9319 19.9013L54.1668 23.6664L77.8333 23.6664Z" fill="white" fill-opacity="0.2"/>
</g>
<g style="mix-blend-mode:plus-darker">
<path d="M54.1668 -0.333572L57.9319 3.43154L74.0681 3.43154L77.8332 -0.333569L54.1668 -0.333572Z" fill="black" fill-opacity="0.2"/>
</g>
</g>
<defs>
<linearGradient id="paint0_linear_14_2022" x1="89.8332" y1="49.3329" x2="89.8332" y2="72.9993" gradientUnits="userSpaceOnUse">
<stop stop-color="#E0CC12"/>
<stop offset="1" stop-color="#FFCA0D"/>
</linearGradient>
<linearGradient id="paint1_linear_14_2022" x1="64.1668" y1="49.3329" x2="64.1668" y2="72.9993" gradientUnits="userSpaceOnUse">
<stop stop-color="#E0CC12"/>
<stop offset="1" stop-color="#FFCA0D"/>
</linearGradient>
<linearGradient id="paint2_linear_14_2022" x1="38.5003" y1="49.3329" x2="38.5003" y2="72.9993" gradientUnits="userSpaceOnUse">
<stop stop-color="#E0CC12"/>
<stop offset="1" stop-color="#FFCA0D"/>
</linearGradient>
<linearGradient id="paint3_linear_14_2022" x1="89.8332" y1="23.6664" x2="89.8332" y2="47.3329" gradientUnits="userSpaceOnUse">
<stop stop-color="#E0CC12"/>
<stop offset="1" stop-color="#FFCA0D"/>
</linearGradient>
<clipPath id="clip0_14_2022">
<rect x="78" y="49.3329" width="23.6664" height="23.6664" rx="2.15149" transform="rotate(-180 78 49.3329)" fill="white"/>
</clipPath>
<clipPath id="clip1_14_2022">
<rect x="52.3336" y="49.3329" width="23.6664" height="23.6664" rx="2.15149" transform="rotate(-180 52.3336 49.3329)" fill="white"/>
</clipPath>
<clipPath id="clip2_14_2022">
<rect x="26.6671" y="49.3329" width="23.6664" height="23.6664" rx="2.15149" transform="rotate(-180 26.6671 49.3329)" fill="white"/>
</clipPath>
<clipPath id="clip3_14_2022">
<rect x="78" y="23.6664" width="23.6664" height="23.6664" rx="2.15149" transform="rotate(-180 78 23.6664)" fill="white"/>
</clipPath>
</defs>
</svg>
