<svg width="39" height="41" viewBox="0 0 39 41" fill="none" xmlns="http://www.w3.org/2000/svg">
<g filter="url(#filter0_d_14_2187)">
<path d="M10 4.79009C10 3.77099 10.7663 2.91486 11.7791 2.80232L34.7791 0.246763C35.9639 0.115126 37 1.04251 37 2.23453V31H36.9775C36.725 33.8032 34.369 36 31.5 36C28.4624 36 26 33.5376 26 30.5C26 27.4624 28.4624 25 31.5 25C32.4003 25 33.2499 25.2163 34 25.5997V13.5679C34 12.3759 32.9639 11.4485 31.7791 11.5801L14.7791 13.469C13.7663 13.5815 13 14.4376 13 15.4567V27H12.9775C12.725 29.8032 10.369 32 7.5 32C4.4624 32 2 29.5376 2 26.5C2 23.4624 4.4624 21 7.5 21C8.40027 21 9.24988 21.2163 10 21.5997V4.79009Z" fill="white"/>
</g>
<defs>
<filter id="filter0_d_14_2187" x="0" y="0.234291" width="39" height="40.7657" filterUnits="userSpaceOnUse" color-interpolation-filters="sRGB">
<feFlood flood-opacity="0" result="BackgroundImageFix"/>
<feColorMatrix in="SourceAlpha" type="matrix" values="0 0 0 0 0 0 0 0 0 0 0 0 0 0 0 0 0 0 127 0" result="hardAlpha"/>
<feOffset dy="3"/>
<feGaussianBlur stdDeviation="1"/>
<feComposite in2="hardAlpha" operator="out"/>
<feColorMatrix type="matrix" values="0 0 0 0 0 0 0 0 0 0 0 0 0 0 0 0 0 0 0.15 0"/>
<feBlend mode="normal" in2="BackgroundImageFix" result="effect1_dropShadow_14_2187"/>
<feBlend mode="normal" in="SourceGraphic" in2="effect1_dropShadow_14_2187" result="shape"/>
</filter>
</defs>
</svg>
