<svg width="40" height="41" viewBox="0 0 40 41" fill="none" xmlns="http://www.w3.org/2000/svg">
<g filter="url(#filter0_d_14_2184)">
<path d="M12 9L22.8375 1.25891C24.1613 0.313385 26 1.25964 26 2.88638V33.1136C26 34.7404 24.1613 35.6866 22.8375 34.7411L12 27H4C2.89543 27 2 26.1046 2 25V11C2 9.89543 2.89543 9 4 9H12Z" fill="white"/>
<path d="M32.7568 9.7049C32.0415 9.28694 31.1228 9.52796 30.7049 10.2432C30.2869 10.9585 30.528 11.8771 31.2432 12.2951C33.1887 13.4319 34.5 15.5585 34.5 18C34.5 20.4414 33.1887 22.5681 31.2432 23.7049C30.528 24.1228 30.2869 25.0415 30.7049 25.7568C31.1228 26.472 32.0415 26.7131 32.7568 26.2951C35.5937 24.6374 37.5 21.5409 37.5 18C37.5 14.4591 35.5937 11.3626 32.7568 9.7049Z" fill="white"/>
</g>
<defs>
<filter id="filter0_d_14_2184" x="0" y="0.882858" width="39.5" height="39.2343" filterUnits="userSpaceOnUse" color-interpolation-filters="sRGB">
<feFlood flood-opacity="0" result="BackgroundImageFix"/>
<feColorMatrix in="SourceAlpha" type="matrix" values="0 0 0 0 0 0 0 0 0 0 0 0 0 0 0 0 0 0 127 0" result="hardAlpha"/>
<feOffset dy="3"/>
<feGaussianBlur stdDeviation="1"/>
<feComposite in2="hardAlpha" operator="out"/>
<feColorMatrix type="matrix" values="0 0 0 0 0 0 0 0 0 0 0 0 0 0 0 0 0 0 0.15 0"/>
<feBlend mode="normal" in2="BackgroundImageFix" result="effect1_dropShadow_14_2184"/>
<feBlend mode="normal" in="SourceGraphic" in2="effect1_dropShadow_14_2184" result="shape"/>
</filter>
</defs>
</svg>
