<svg width="27" height="26" viewBox="0 0 27 26" fill="none" xmlns="http://www.w3.org/2000/svg">
<path fill-rule="evenodd" clip-rule="evenodd" d="M21.9764 0.727272C21.9764 1.48853 21.9551 2.23835 21.9134 2.97378H26.6364V3.55787C26.6364 6.149 25.9004 8.58233 23.8434 10.3533C22.8491 11.2093 21.5695 11.89 19.961 12.3629C18.9179 14.8764 17.5141 16.7256 15.8552 17.5831C17.4075 18.6794 18.9404 20.7771 19.1833 23.2373H20.8906V25.3939H6.59419V23.2373H8.34672C8.58773 20.7971 10.0978 18.7134 11.6372 17.61C9.95186 16.763 8.52703 14.8955 7.47228 12.3476C5.88791 11.8754 4.62505 11.2001 3.64145 10.3533C1.58441 8.58233 0.848475 6.149 0.848475 3.55787V2.97378H5.52615C5.48446 2.23835 5.46315 1.48853 5.46315 0.727272H21.9764ZM25.4461 4.14196H21.8291C21.6086 6.65002 21.1468 8.96363 20.484 10.9567C21.5471 10.5562 22.3984 10.0513 23.0728 9.47061C24.6506 8.11227 25.3421 6.26759 25.4461 4.14196ZM4.41198 9.47061C5.07545 10.0418 5.91011 10.5397 6.94904 10.937C6.28981 8.94841 5.83021 6.64179 5.61047 4.14196H2.03877C2.14271 6.26759 2.83417 8.11227 4.41198 9.47061ZM12.3314 6.49049L13.7198 3.10364L15.1082 6.49049L18.6034 6.83104L15.9663 9.26478L16.7381 12.8621L13.7198 10.9794L10.7015 12.8621L11.4733 9.26478L8.83616 6.83104L12.3314 6.49049Z" fill="url(#paint0_linear_201_118)"/>
<defs>
<linearGradient id="paint0_linear_201_118" x1="13.7424" y1="0.727272" x2="13.7424" y2="25.3939" gradientUnits="userSpaceOnUse">
<stop stop-color="#FFE456"/>
<stop offset="1" stop-color="#FFA800"/>
</linearGradient>
</defs>
</svg>
